<svg id="Component_2_1" data-name="Component 2 – 1" xmlns="http://www.w3.org/2000/svg" xmlns:xlink="http://www.w3.org/1999/xlink" width="935" height="935" viewBox="0 0 935 935">
  <defs>
    <linearGradient id="linear-gradient" x1="0.845" y1="0.058" x2="-0.585" y2="2.381" gradientUnits="objectBoundingBox">
      <stop offset="0" stop-color="#6661fe"/>
      <stop offset="1" stop-color="#fe0000"/>
    </linearGradient>
  </defs>
  <g id="Ellipse_1" data-name="Ellipse 1" stroke="#7d7d7d" stroke-width="1" fill="url(#linear-gradient)">
    <circle cx="467.5" cy="467.5" r="467.5" stroke="none"/>
    <circle cx="467.5" cy="467.5" r="467" fill="none"/>
  </g>
  <g id="Component_1_1" data-name="Component 1 – 1" transform="translate(644 115)" opacity="0.04">
    <rect id="Rectangle_1" data-name="Rectangle 1" width="290" height="270" fill="#fff"/>
    <rect id="Rectangle_2" data-name="Rectangle 2" width="237" height="221" transform="translate(0 49)" fill="#fbf9f9" opacity="0.23"/>
  </g>
  <g id="Exclusion_1" data-name="Exclusion 1" transform="translate(328 528)" fill="#fff" opacity="0.03">
    <path d="M 228.4999237060547 216.5007019042969 L 0.4999836385250092 216.5007019042969 L 0.4999836385250092 0.5000254511833191 L 228.4999237060547 0.5000254511833191 L 228.4999237060547 216.5007019042969 Z M 42.76354217529297 41.17528915405273 L 42.76354217529297 41.67528915405273 L 42.76354217529297 175.3247680664063 L 42.76354217529297 175.8247680664063 L 43.26354217529297 175.8247680664063 L 185.7363586425781 175.8247680664063 L 186.2363586425781 175.8247680664063 L 186.2363586425781 175.3247680664063 L 186.2363586425781 41.67528915405273 L 186.2363586425781 41.17528915405273 L 185.7363586425781 41.17528915405273 L 43.26354217529297 41.17528915405273 L 42.76354217529297 41.17528915405273 Z" stroke="none"/>
    <path d="M 227.9999237060547 216.0007019042969 L 227.9999237060547 1.000025391578674 L 0.9999836087226868 1.000025391578674 L 0.9999836087226868 216.0007019042969 L 227.9999237060547 216.0007019042969 M 42.26354217529297 40.67528915405273 L 43.26354217529297 40.67528915405273 L 185.7363586425781 40.67528915405273 L 186.7363586425781 40.67528915405273 L 186.7363586425781 41.67528915405273 L 186.7363586425781 175.3247680664063 L 186.7363586425781 176.3247680664063 L 185.7363586425781 176.3247680664063 L 43.26354217529297 176.3247680664063 L 42.26354217529297 176.3247680664063 L 42.26354217529297 175.3247680664063 L 42.26354217529297 41.67528915405273 L 42.26354217529297 40.67528915405273 M 228.9999237060547 217.0014038085938 L 228.9999237060547 217.0007019042969 L -1.636460183362942e-05 217.0007019042969 L -1.636460183362942e-05 2.543370828789193e-05 L 228.9999237060547 2.543370828789193e-05 L 228.9999237060547 217.0007019042969 L 228.9999237060547 217.0014038085938 Z M 43.26354217529297 41.67528915405273 L 43.26354217529297 175.3247680664063 L 185.7363586425781 175.3247680664063 L 185.7363586425781 41.67528915405273 L 43.26354217529297 41.67528915405273 Z" stroke="none" fill="#707070"/>
  </g>
  <g id="Ellipse_2" data-name="Ellipse 2" transform="translate(61 260)" fill="#fff" stroke="#707070" stroke-width="1" opacity="0.04">
    <circle cx="92.5" cy="92.5" r="92.5" stroke="none"/>
    <circle cx="92.5" cy="92.5" r="92" fill="none"/>
  </g>
  <g id="Ellipse_3" data-name="Ellipse 3" transform="translate(122 385)" fill="#fff" stroke="#707070" stroke-width="1" opacity="0.04">
    <circle cx="60.5" cy="60.5" r="60.5" stroke="none"/>
    <circle cx="60.5" cy="60.5" r="60" fill="none"/>
  </g>
</svg>
