<svg xmlns="http://www.w3.org/2000/svg" xmlns:xlink="http://www.w3.org/1999/xlink" width="76" height="78" viewBox="0 0 76 78">
  <defs>
    <linearGradient id="linear-gradient" x1="0.5" x2="1" y2="1.322" gradientUnits="objectBoundingBox">
      <stop offset="0" stop-color="#9c8ef1"/>
      <stop offset="1" stop-color="#d07efc"/>
    </linearGradient>
  </defs>
  <path id="Exclusion_7" data-name="Exclusion 7" d="M38,78a36.927,36.927,0,0,1-14.791-3.065A37.834,37.834,0,0,1,11.13,66.577a38.942,38.942,0,0,1-8.144-12.4,40.078,40.078,0,0,1,0-30.361,38.943,38.943,0,0,1,8.144-12.4A37.835,37.835,0,0,1,23.209,3.065a37.225,37.225,0,0,1,29.583,0A37.834,37.834,0,0,1,64.87,11.423a38.942,38.942,0,0,1,8.144,12.4,40.079,40.079,0,0,1,0,30.361,38.941,38.941,0,0,1-8.144,12.4,37.833,37.833,0,0,1-12.079,8.358A36.928,36.928,0,0,1,38,78ZM38,8.3C21.5,8.3,8.085,22.071,8.085,39S21.5,69.7,38,69.7,67.915,55.929,67.915,39,54.495,8.3,38,8.3Z" fill="url(#linear-gradient)"/>
</svg>
